<svg width="44" height="17" viewBox="0 0 44 17" fill="none" xmlns="http://www.w3.org/2000/svg">
<path d="M3.176 10.246V0.633999H0.116V13H9.134V10.246H3.176ZM15.3236 13.216C18.1316 13.216 20.4896 10.984 20.4896 8.338C20.4896 5.692 18.1316 3.478 15.3236 3.478C12.5156 3.478 10.1576 5.692 10.1576 8.338C10.1576 10.984 12.5156 13.216 15.3236 13.216ZM15.3236 10.678C14.0816 10.678 13.0376 9.598 13.0376 8.338C13.0376 7.078 14.0816 6.016 15.3236 6.016C16.5656 6.016 17.6096 7.078 17.6096 8.338C17.6096 9.598 16.5656 10.678 15.3236 10.678ZM28.6754 3.694V4.828C28.0634 4.036 26.8754 3.478 25.7054 3.478C23.4014 3.478 21.6194 5.296 21.6194 7.888C21.6194 10.48 23.4014 12.316 25.7054 12.316C26.8574 12.316 27.9374 11.83 28.6754 10.984V11.866C28.6754 12.856 27.6494 13.558 26.1194 13.558C25.0574 13.558 23.9774 13.216 23.4014 12.73L22.3754 14.854C23.3294 15.574 24.9134 16.096 26.5874 16.096C29.6114 16.096 31.7354 14.404 31.7354 12.01V3.694H28.6754ZM26.7134 9.778C25.5794 9.778 24.7514 8.986 24.7514 7.888C24.7514 6.79 25.5794 6.016 26.7134 6.016C27.8654 6.016 28.6754 6.79 28.6754 7.888C28.6754 8.986 27.8654 9.778 26.7134 9.778ZM38.5092 13.216C41.3172 13.216 43.6752 10.984 43.6752 8.338C43.6752 5.692 41.3172 3.478 38.5092 3.478C35.7012 3.478 33.3432 5.692 33.3432 8.338C33.3432 10.984 35.7012 13.216 38.5092 13.216ZM38.5092 10.678C37.2672 10.678 36.2232 9.598 36.2232 8.338C36.2232 7.078 37.2672 6.016 38.5092 6.016C39.7512 6.016 40.7952 7.078 40.7952 8.338C40.7952 9.598 39.7512 10.678 38.5092 10.678Z" fill="white"/>
</svg>
