<?xml version="1.0" encoding="utf-8"?><svg viewBox="0 0 45 34" xmlns="http://www.w3.org/2000/svg" xmlns:xlink="http://www.w3.org/1999/xlink"><style>:root>svg{display:none}:root>svg:target{display:block}</style><svg fill="none" viewBox="0 0 18 18" id="arrow" xmlns="http://www.w3.org/2000/svg"><g clip-path="url(#aa)"><path d="M6.75 3.75v1.5h4.942L3 13.943 4.057 15l8.693-8.692v4.942h1.5v-7.5h-7.5Z" fill="#fff"/></g><defs><clipPath id="aa"><path fill="#fff" d="M0 0h18v18H0z"/></clipPath></defs></svg><svg fill="none" viewBox="0 0 17 17" id="backed_linkedin" xmlns="http://www.w3.org/2000/svg"><path d="M14.038 9.693V13.6a.181.181 0 0 1-.178.178h-2.016a.181.181 0 0 1-.178-.178V9.967c0-.96-.343-1.618-1.206-1.618-.658 0-1.042.439-1.22.864-.069.15-.083.37-.083.576v3.81a.182.182 0 0 1-.178.18H6.977a.182.182 0 0 1-.178-.18c0-.972.028-5.675 0-6.772 0-.096.082-.178.178-.178h2.016c.096 0 .178.082.178.178v.837c0 .013-.014.013-.014.027h.014v-.027c.315-.48.877-1.18 2.139-1.18 1.563 0 2.728 1.029 2.728 3.209ZM3.29 13.792h2.015a.182.182 0 0 0 .178-.178V6.827a.181.181 0 0 0-.178-.178H3.29a.181.181 0 0 0-.179.178v6.787c.014.096.083.178.179.178ZM4.236 5.758a1.275 1.275 0 1 0 0-2.55 1.275 1.275 0 0 0 0 2.55Z" fill="#333033"/></svg><svg fill="none" viewBox="0 0 12 12" id="backed_twitter" xmlns="http://www.w3.org/2000/svg"><path d="M12 2.654a5.13 5.13 0 0 1-1.418.389c.515-.306.9-.79 1.083-1.36a4.917 4.917 0 0 1-1.56.595 2.46 2.46 0 0 0-4.256 1.683c0 .195.017.382.057.56a6.963 6.963 0 0 1-5.07-2.573 2.464 2.464 0 0 0 .755 3.288A2.43 2.43 0 0 1 .48 4.933v.027a2.471 2.471 0 0 0 1.971 2.418c-.21.055-.427.082-.645.08a2.175 2.175 0 0 1-.466-.041A2.483 2.483 0 0 0 3.64 9.13 4.943 4.943 0 0 1 0 10.146a6.925 6.925 0 0 0 3.774 1.104c4.527 0 7.002-3.75 7.002-7 0-.11-.004-.214-.009-.319.485-.347.903-.78 1.233-1.277Z" fill="#5E5C6C"/></svg><svg fill="none" viewBox="0 0 44 17" id="logo_footer" xmlns="http://www.w3.org/2000/svg"><path d="M3.176 10.246V.634H.116V13h9.018v-2.754H3.176Zm12.148 2.97c2.808 0 5.166-2.232 5.166-4.878s-2.358-4.86-5.166-4.86c-2.808 0-5.166 2.214-5.166 4.86 0 2.646 2.358 4.878 5.166 4.878Zm0-2.538c-1.242 0-2.286-1.08-2.286-2.34 0-1.26 1.044-2.322 2.286-2.322s2.286 1.062 2.286 2.322-1.044 2.34-2.286 2.34Zm13.351-6.984v1.134c-.612-.792-1.8-1.35-2.97-1.35-2.304 0-4.086 1.818-4.086 4.41s1.782 4.428 4.086 4.428a3.928 3.928 0 0 0 2.97-1.332v.882c0 .99-1.026 1.692-2.556 1.692-1.062 0-2.142-.342-2.718-.828l-1.026 2.124c.954.72 2.538 1.242 4.212 1.242 3.024 0 5.148-1.692 5.148-4.086V3.694h-3.06Zm-1.962 6.084c-1.134 0-1.962-.792-1.962-1.89 0-1.098.828-1.872 1.962-1.872 1.152 0 1.962.774 1.962 1.872s-.81 1.89-1.962 1.89Zm11.796 3.438c2.808 0 5.166-2.232 5.166-4.878s-2.358-4.86-5.166-4.86c-2.808 0-5.166 2.214-5.166 4.86 0 2.646 2.358 4.878 5.166 4.878Zm0-2.538c-1.242 0-2.286-1.08-2.286-2.34 0-1.26 1.044-2.322 2.286-2.322s2.286 1.062 2.286 2.322-1.044 2.34-2.286 2.34Z" fill="#fff"/></svg><svg fill="none" viewBox="0 0 45 34" id="logo_header" xmlns="http://www.w3.org/2000/svg"><g clip-path="url(#ea)"><path d="M4.176 19.246V9.634h-3.06V22h9.018v-2.754H4.176Zm12.148 2.97c2.808 0 5.166-2.232 5.166-4.878s-2.358-4.86-5.166-4.86c-2.808 0-5.166 2.214-5.166 4.86 0 2.646 2.358 4.878 5.166 4.878Zm0-2.538c-1.242 0-2.286-1.08-2.286-2.34 0-1.26 1.044-2.322 2.286-2.322s2.286 1.062 2.286 2.322-1.044 2.34-2.286 2.34Zm13.351-6.984v1.134c-.612-.792-1.8-1.35-2.97-1.35-2.304 0-4.086 1.818-4.086 4.41s1.782 4.428 4.086 4.428a3.928 3.928 0 0 0 2.97-1.332v.882c0 .99-1.026 1.692-2.556 1.692-1.062 0-2.142-.342-2.718-.828l-1.026 2.124c.954.72 2.538 1.242 4.212 1.242 3.024 0 5.148-1.692 5.148-4.086v-8.316h-3.06Zm-1.962 6.084c-1.134 0-1.962-.792-1.962-1.89 0-1.098.828-1.872 1.962-1.872 1.152 0 1.962.774 1.962 1.872s-.81 1.89-1.962 1.89Zm11.796 3.438c2.808 0 5.166-2.232 5.166-4.878s-2.358-4.86-5.166-4.86c-2.808 0-5.166 2.214-5.166 4.86 0 2.646 2.358 4.878 5.166 4.878Zm0-2.538c-1.242 0-2.286-1.08-2.286-2.34 0-1.26 1.044-2.322 2.286-2.322s2.286 1.062 2.286 2.322-1.044 2.34-2.286 2.34Z" fill="#000"/></g><defs><clipPath id="ea"><path fill="#fff" d="M0 0h45v34H0z"/></clipPath></defs></svg><svg fill="none" viewBox="0 0 24 18" id="nav_discord" xmlns="http://www.w3.org/2000/svg"><path d="M19.67 1.468A19.162 19.162 0 0 0 14.94.001a.072.072 0 0 0-.075.036c-.204.363-.43.837-.59 1.21a17.69 17.69 0 0 0-5.311 0C8.805.867 8.57.4 8.366.037A.075.075 0 0 0 8.29.001C6.63.287 5.042.788 3.56 1.468a.068.068 0 0 0-.031.027C.516 5.995-.31 10.385.096 14.72a.08.08 0 0 0 .03.054 19.268 19.268 0 0 0 5.802 2.933c.03.01.063-.002.082-.027.447-.61.845-1.254 1.187-1.93.02-.04 0-.087-.04-.103a12.69 12.69 0 0 1-1.813-.864.074.074 0 0 1-.007-.123c.122-.092.243-.187.36-.282a.072.072 0 0 1 .075-.01c3.803 1.736 7.92 1.736 11.677 0a.071.071 0 0 1 .076.009c.117.095.239.191.361.283a.074.074 0 0 1-.006.123c-.579.339-1.18.624-1.813.863a.074.074 0 0 0-.04.104c.35.675.747 1.319 1.186 1.93a.074.074 0 0 0 .082.027 19.203 19.203 0 0 0 5.811-2.933.075.075 0 0 0 .03-.053c.485-5.013-.811-9.367-3.435-13.226a.06.06 0 0 0-.03-.028ZM7.766 12.081c-1.145 0-2.088-1.051-2.088-2.342 0-1.291.925-2.342 2.088-2.342 1.172 0 2.106 1.06 2.088 2.342 0 1.29-.925 2.342-2.088 2.342Zm7.72 0c-1.144 0-2.087-1.051-2.087-2.342 0-1.291.925-2.342 2.088-2.342 1.172 0 2.106 1.06 2.088 2.342 0 1.29-.916 2.342-2.088 2.342Z" fill="#5E5C6C"/></svg><svg fill="none" viewBox="0 0 18 18" id="nav_twitter" xmlns="http://www.w3.org/2000/svg"><path d="M18 3.981a7.694 7.694 0 0 1-2.126.583 3.67 3.67 0 0 0 1.623-2.04 7.373 7.373 0 0 1-2.34.894A3.69 3.69 0 0 0 8.774 5.94c0 .292.025.574.085.841a10.445 10.445 0 0 1-7.606-3.86 3.696 3.696 0 0 0 1.134 4.933A3.645 3.645 0 0 1 .72 7.4v.04a3.707 3.707 0 0 0 2.957 3.626 3.686 3.686 0 0 1-.968.122 3.27 3.27 0 0 1-.699-.063 3.725 3.725 0 0 0 3.449 2.57A7.414 7.414 0 0 1 .883 15.27c-.302 0-.593-.014-.883-.051a10.39 10.39 0 0 0 5.661 1.656c6.79 0 10.503-5.625 10.503-10.5 0-.164-.006-.322-.014-.478A7.362 7.362 0 0 0 18 3.981Z" fill="#5E5C6C"/></svg><svg fill="none" viewBox="0 0 24 18" id="socials_discord" xmlns="http://www.w3.org/2000/svg"><path d="M19.67 1.468A19.162 19.162 0 0 0 14.94.001a.072.072 0 0 0-.075.036c-.204.363-.43.837-.59 1.21a17.69 17.69 0 0 0-5.311 0C8.805.867 8.57.4 8.366.037A.075.075 0 0 0 8.29.001C6.63.287 5.042.788 3.56 1.468a.068.068 0 0 0-.031.027C.516 5.995-.31 10.385.096 14.72a.08.08 0 0 0 .03.054 19.268 19.268 0 0 0 5.802 2.933c.03.01.063-.002.082-.027.447-.61.845-1.254 1.187-1.93.02-.04 0-.087-.04-.103a12.69 12.69 0 0 1-1.813-.864.074.074 0 0 1-.007-.123c.122-.092.243-.187.36-.282a.072.072 0 0 1 .075-.01c3.803 1.736 7.92 1.736 11.677 0a.071.071 0 0 1 .076.009c.117.095.239.191.361.283a.074.074 0 0 1-.006.123c-.579.339-1.18.624-1.813.863a.074.074 0 0 0-.04.104c.35.675.747 1.319 1.186 1.93a.074.074 0 0 0 .082.027 19.203 19.203 0 0 0 5.811-2.933.075.075 0 0 0 .03-.053c.485-5.013-.811-9.367-3.435-13.226a.06.06 0 0 0-.03-.028ZM7.766 12.081c-1.145 0-2.088-1.051-2.088-2.342 0-1.291.925-2.342 2.088-2.342 1.172 0 2.106 1.06 2.088 2.342 0 1.29-.925 2.342-2.088 2.342Zm7.72 0c-1.144 0-2.087-1.051-2.087-2.342 0-1.291.925-2.342 2.088-2.342 1.172 0 2.106 1.06 2.088 2.342 0 1.29-.916 2.342-2.088 2.342Z" fill="#fff"/></svg><svg fill="none" viewBox="0 0 26 26" id="socials_linkedin" xmlns="http://www.w3.org/2000/svg"><path d="M21.471 14.824V20.8a.278.278 0 0 1-.273.273h-3.082a.278.278 0 0 1-.272-.273v-5.557c0-1.467-.525-2.474-1.846-2.474-1.006 0-1.593.671-1.866 1.321-.105.231-.125.566-.125.881V20.8a.278.278 0 0 1-.273.273h-3.061a.278.278 0 0 1-.273-.273c0-1.489.042-8.68 0-10.358 0-.147.126-.273.273-.273h3.082c.147 0 .272.126.272.273v1.279c0 .02-.02.02-.02.042h.02v-.042c.483-.734 1.342-1.803 3.271-1.803 2.39 0 4.173 1.572 4.173 4.906Zm-16.439 6.27h3.083a.278.278 0 0 0 .272-.273v-10.38a.278.278 0 0 0-.272-.272H5.032a.278.278 0 0 0-.272.273V20.82c.02.147.126.272.272.272ZM6.48 8.806a1.95 1.95 0 1 0 0-3.9 1.95 1.95 0 0 0 0 3.9Z" fill="#fff"/></svg><svg fill="none" viewBox="0 0 20 20" id="socials_twitter" xmlns="http://www.w3.org/2000/svg"><path d="M20 4.424a8.548 8.548 0 0 1-2.363.647 4.077 4.077 0 0 0 1.804-2.266 8.193 8.193 0 0 1-2.6.993A4.1 4.1 0 0 0 9.75 6.6c0 .325.027.638.095.935a11.605 11.605 0 0 1-8.451-4.288 4.106 4.106 0 0 0 1.26 5.48A4.05 4.05 0 0 1 .8 8.223v.045a4.119 4.119 0 0 0 3.285 4.028c-.35.093-.712.138-1.075.135-.26.005-.52-.018-.776-.07a4.139 4.139 0 0 0 3.831 2.857 8.237 8.237 0 0 1-5.084 1.748c-.336 0-.658-.015-.981-.056a11.542 11.542 0 0 0 6.29 1.84c7.545 0 11.67-6.25 11.67-11.667 0-.182-.006-.357-.015-.53A8.18 8.18 0 0 0 20 4.423Z" fill="#fff"/></svg><svg fill="none" viewBox="0 0 25 16" id="socials_youtube" xmlns="http://www.w3.org/2000/svg"><path d="M10.135 15.98c-4.66-.08-6.252-.152-7.23-.34-.663-.125-1.238-.402-1.66-.803-.326-.304-.585-.768-.786-1.41-.173-.537-.24-.982-.336-2.072-.146-2.458-.181-4.467 0-6.712.15-1.24.223-2.712 1.218-3.571a3.36 3.36 0 0 1 1.63-.768c.96-.17 5.044-.303 9.273-.303 4.22 0 8.314.134 9.274.303.767.134 1.486.536 1.908 1.054.908 1.33.924 2.982 1.016 4.276.038.616.038 4.115 0 4.73-.143 2.045-.259 2.768-.585 3.517-.201.474-.373.723-.671 1a3.307 3.307 0 0 1-1.707.813c-4.033.282-7.458.343-11.344.285Zm6.175-8.213c-2.243-1.116-4.392-2.151-6.588-3.222v6.409c2.311-1.17 4.747-2.24 6.598-3.196l-.01.009Z" fill="#CD201F"/></svg><svg fill="none" viewBox="0 0 17 14" id="vector" xmlns="http://www.w3.org/2000/svg"><path d="M.507 13.75 16.25 7 .508.25.5 5.5 11.75 7 .5 8.5l.007 5.25Z" fill="#fff"/></svg></svg>